<svg xmlns="http://www.w3.org/2000/svg" width="256" height="256" viewBox="0 0 100 100"><rect width="100" height="100" rx="50" fill="#a20010"></rect><path fill="#fff" d="M50 81.75L50 81.75Q43.70 81.75 38.70 80.05Q33.70 78.35 30.20 75.20Q26.70 72.05 24.85 67.60Q23 63.15 23 57.75L23 57.75L23 19.15Q24.20 18.95 26.50 18.60Q28.80 18.25 31.10 18.25L31.10 18.25Q36.10 18.25 38.30 19.95Q40.50 21.65 40.50 26.55L40.50 26.55L40.50 57.45Q40.50 62.25 43.15 64.95Q45.80 67.65 50 67.65L50 67.65Q54.20 67.65 56.85 64.95Q59.50 62.25 59.50 57.45L59.50 57.45L59.50 19.15Q60.70 18.95 63 18.60Q65.30 18.25 67.60 18.25L67.60 18.25Q72.60 18.25 74.80 19.95Q77 21.65 77 26.55L77 26.55L77 57.75Q77 63.15 75.15 67.60Q73.30 72.05 69.80 75.20Q66.30 78.35 61.30 80.05Q56.30 81.75 50 81.75Z"></path></svg>